<?xml version="1.0" encoding="UTF-8" standalone="no"?>
<!-- Created with Inkscape (http://www.inkscape.org/) -->

<svg
   version="1.1"
   id="svg1015"
   width="800"
   height="800"
   viewBox="0 0 800 800"
   sodipodi:docname="bonsai-tree-publicdomainvectors.org.svg"
   inkscape:version="1.2 (dc2aedaf03, 2022-05-15)"
   xmlns:inkscape="http://www.inkscape.org/namespaces/inkscape"
   xmlns:sodipodi="http://sodipodi.sourceforge.net/DTD/sodipodi-0.dtd"
   xmlns="http://www.w3.org/2000/svg"
   xmlns:svg="http://www.w3.org/2000/svg">
  <defs
     id="defs1019">
    <clipPath
       clipPathUnits="userSpaceOnUse"
       id="clipPath1031">
      <path
         d="M 0,600 H 600 V 0 H 0 Z"
         id="path1029" />
    </clipPath>
  </defs>
  <sodipodi:namedview
     id="namedview1017"
     pagecolor="#ffffff"
     bordercolor="#000000"
     borderopacity="0.25"
     inkscape:showpageshadow="2"
     inkscape:pageopacity="0.0"
     inkscape:pagecheckerboard="0"
     inkscape:deskcolor="#d1d1d1"
     showgrid="false"
     inkscape:zoom="1.04625"
     inkscape:cx="400"
     inkscape:cy="400.4779"
     inkscape:window-width="1920"
     inkscape:window-height="1017"
     inkscape:window-x="-8"
     inkscape:window-y="-8"
     inkscape:window-maximized="1"
     inkscape:current-layer="g1023">
    <inkscape:page
       x="0"
       y="0"
       id="page1021"
       width="800"
       height="800" />
  </sodipodi:namedview>
  <g
     id="g1023"
     inkscape:groupmode="layer"
     inkscape:label="Page 1"
     transform="matrix(1.3333333,0,0,-1.3333333,0,800)">
    <g
       id="g1025">
      <g
         id="g1027"
         clip-path="url(#clipPath1031)">
        <g
           id="g1033"
           transform="translate(233.0347,271.5537)">
          <path
             d="M 0,0 C 6.939,9.589 4.114,8.242 -19.837,21.761 -42.64,34.63 -61.285,58.542 -56.808,90.265 L -49.826,89.3 C -56.614,40.528 4.383,19.376 44.71,22.299 Z"
             style="fill:#331e15;fill-opacity:1;fill-rule:nonzero;stroke:none"
             id="path1035" />
        </g>
        <g
           id="g1037"
           transform="translate(198.2212,304.0259)">
          <path
             d="m 0,0 c -15.239,13.685 -25.432,33.436 -21.995,57.793 l 3.492,-0.483 C -22.224,39.08 -14.534,19.843 0,0"
             style="fill:#803e1a;fill-opacity:1;fill-rule:nonzero;stroke:none"
             id="path1039" />
        </g>
        <g
           id="g1041"
           transform="translate(297.5435,121.6631)">
          <path
             d="m 0,0 c 14.068,21.704 24.584,39.719 23.892,51.705 -1.027,17.769 -55.847,28.352 -74.977,40.592 -29.818,19.077 -31.311,51.694 0.195,71.087 28.89,17.781 139.14,22.935 117.421,60.403 l 11.275,6.53 c 27.539,-67.73 -86.187,-67.182 -116.833,-86.045 -8.623,-5.306 -9.221,-17.383 2.263,-24.047 C -4.937,99.86 58.785,105.777 61.791,53.784 63.107,31.031 49.751,7.028 31.806,-20.658 Z"
             style="fill:#602e15;fill-opacity:1;fill-rule:nonzero;stroke:none"
             id="path1043" />
        </g>
        <g
           id="g1045"
           transform="translate(300.7759,279.6143)">
          <path
             d="m 0,0 c -17.431,-4.354 -33.354,-8.197 -42.26,-13.679 -8.622,-5.306 -9.22,-17.383 2.264,-24.048 9.15,-5.853 20.937,-9.537 33.157,-13.047 -23.622,0.876 -49.99,7.393 -50.332,23.767 C -57.61,-5.935 -24.09,-0.346 0,0"
             style="fill:#331e15;fill-opacity:1;fill-rule:nonzero;stroke:none"
             id="path1047" />
        </g>
        <g
           id="g1049"
           transform="translate(226.8423,235.2266)">
          <path
             d="M 0,0 C -7.854,17.082 -1.753,36.547 19.811,49.82 46.887,66.485 145.423,72.058 139.814,103.535 149.427,67.932 63.894,65.897 21.243,45.72 5.956,38.489 -5.361,23.531 0,0"
             style="fill:#9c4a1d;fill-opacity:1;fill-rule:nonzero;stroke:none"
             id="path1051" />
        </g>
        <g
           id="g1053"
           transform="translate(196.6499,88.2822)">
          <path
             d="m 0,0 c 51.02,13.059 83.068,41.704 88.99,91.808 5.105,-16.134 8.05,-32.723 8.055,-49.931 7.215,11.446 8.622,26.541 6.441,43.891 8.175,-17.586 11.288,-36.105 9.263,-55.568 11.496,31.515 12.443,67.066 15.3,105.097 1.119,-39.332 1.803,-76.472 9.262,-110.331 0.693,21.519 4.006,41.561 10.873,59.596 -3.004,-15.313 -3.307,-29.926 2.014,-43.088 3.259,26.905 8.41,51.356 18.924,68.857 -3.862,-17.787 -3.385,-35.095 4.832,-51.542 1.421,9.933 3.138,19.732 6.041,28.991 C 190.336,51.91 217.247,19.483 294.756,-2.417 196.504,-1.612 98.252,-0.808 0,0"
             style="fill:#db2f23;fill-opacity:1;fill-rule:evenodd;stroke:none"
             id="path1055" />
        </g>
        <g
           id="g1057"
           transform="translate(370.6035,147.0713)">
          <path
             d="M 0,0 C 1.422,9.933 3.139,19.732 6.041,28.991 3.59,11.43 5.047,-5.424 8.504,-21.911 5.668,-14.607 2.836,-7.304 0,0 m -23.756,-17.315 c 3.26,26.905 8.41,51.356 18.924,68.857 -12.465,-29.38 -12.789,-60.584 -3.779,-93.186 -5.049,8.112 -10.098,16.22 -15.145,24.329 m -12.887,-16.508 c 0.694,21.519 4.006,41.561 10.874,59.596 -7.061,-23.417 -7.526,-48.565 -4.385,-74.666 -2.162,5.024 -4.326,10.046 -6.489,15.07 m -24.562,5.234 c 11.496,31.515 12.443,67.066 15.301,105.097 -1.139,-40.283 -2.184,-80.884 -4.692,-116.505 -3.537,3.801 -7.074,7.604 -10.609,11.408 m -15.704,11.677 c 7.215,11.446 8.622,26.541 6.442,43.891 5.86,-20.456 7.006,-40.648 3.469,-60.57 -3.304,5.561 -6.608,11.118 -9.911,16.679 m -97.045,-41.877 c 51.021,13.059 83.068,41.704 88.991,91.808 2.386,-52.031 -20.393,-79.23 -57.739,-92.065 h -0.002 z"
             style="fill:#ef3620;fill-opacity:1;fill-rule:evenodd;stroke:none"
             id="path1059" />
        </g>
        <g
           id="g1061"
           transform="translate(213.1289,424.8086)">
          <path
             d="m 0,0 c 14.414,-1.467 25.66,-13.64 25.66,-28.441 0,-6.114 -1.919,-11.779 -5.188,-16.426 4.703,-4.793 7.605,-11.36 7.605,-18.606 0,-14.677 -11.899,-26.577 -26.578,-26.577 -8.677,0 -16.382,4.16 -21.233,10.594 -2.544,-1.869 -5.682,-2.973 -9.079,-2.973 -1.379,0 -2.716,0.183 -3.987,0.524 -4.055,-9.637 -13.583,-16.4 -24.692,-16.4 -14.789,0 -26.778,11.988 -26.778,26.779 0,5.891 1.905,11.338 5.132,15.761 -7.614,0.666 -13.588,7.055 -13.588,14.841 0,7.152 5.04,13.125 11.761,14.567 2.059,9.401 10.433,16.438 20.453,16.438 0.409,0 0.815,-0.011 1.218,-0.035 0.419,16.547 13.963,29.833 30.611,29.833 C -15.551,19.879 -4.352,11.612 0,0"
             style="fill:#db2f23;fill-opacity:1;fill-rule:evenodd;stroke:none"
             id="path1063" />
        </g>
        <g
           id="g1065"
           transform="translate(229.1284,388.1514)">
          <path
             d="m 0,0 c -0.775,-2.409 -1.907,-4.659 -3.332,-6.686 4.108,-4.188 6.642,-9.924 6.642,-16.255 0,-12.819 -10.393,-23.213 -23.216,-23.213 -7.578,0 -14.311,3.633 -18.547,9.254 -2.221,-1.631 -4.963,-2.596 -7.932,-2.596 -1.204,0 -2.371,0.16 -3.482,0.456 -3.541,-8.415 -11.863,-14.324 -21.568,-14.324 -12.917,0 -23.39,10.473 -23.39,23.39 0,5.148 1.664,9.907 4.483,13.769 -1.868,0.162 -3.622,0.72 -5.18,1.587 0.221,4.16 3.142,7.601 7.042,8.607 -0.128,0.493 -0.197,1.012 -0.197,1.547 0,3.295 2.598,5.983 5.857,6.128 1.185,2.482 3.239,4.47 5.768,5.569 -0.011,0.197 -0.017,0.394 -0.017,0.593 0,5.633 4.566,10.2 10.199,10.2 2.745,0 5.236,-1.083 7.069,-2.846 0.431,5.432 4.975,9.705 10.518,9.705 4.449,0 8.256,-2.754 9.807,-6.652 2.09,2.425 5.186,3.96 8.639,3.96 6.297,0 11.403,-5.106 11.403,-11.405 0,-2.061 -0.546,-3.993 -1.503,-5.662 0.91,0.269 1.873,0.413 2.871,0.413 3.89,0 7.266,-2.196 8.959,-5.417 1.363,0.545 2.849,0.845 4.406,0.845 C -3.031,0.967 -1.44,0.621 0,0"
             style="fill:#f14b29;fill-opacity:1;fill-rule:evenodd;stroke:none"
             id="path1067" />
        </g>
        <g
           id="g1069"
           transform="translate(155.292,363.1714)">
          <path
             d="m 0,0 c -0.814,-2.31 -3.015,-3.964 -5.603,-3.964 -3.28,0 -5.939,2.658 -5.939,5.941 0,2.786 1.921,5.124 4.511,5.764 -0.054,0.404 -0.082,0.812 -0.082,1.231 0,5.087 4.124,9.21 9.211,9.21 2.657,0 5.05,-1.125 6.732,-2.925 -0.091,0.576 -0.138,1.166 -0.138,1.768 0,6.254 5.07,11.325 11.325,11.325 0.567,0 1.125,-0.043 1.67,-0.123 1.789,5.226 6.743,8.983 12.574,8.983 7.339,0 13.289,-5.95 13.289,-13.289 0,-0.791 -0.07,-1.564 -0.202,-2.316 2.26,-1.679 3.725,-4.368 3.725,-7.399 0,-0.294 -0.014,-0.584 -0.042,-0.871 1.34,-0.771 2.428,-1.932 3.103,-3.331 0.928,0.277 1.911,0.426 2.929,0.426 5.642,0 10.217,-4.574 10.217,-10.218 0,-5.641 -4.575,-10.216 -10.217,-10.216 -3.777,0 -7.072,2.047 -8.842,5.094 -1.807,-2.247 -4.577,-3.684 -7.684,-3.684 -5.319,0 -9.651,4.208 -9.852,9.477 -0.165,-0.01 -0.333,-0.015 -0.5,-0.015 -3.404,0 -6.305,2.152 -7.417,5.169 -0.881,-0.22 -1.802,-0.338 -2.751,-0.338 -1.734,0 -3.377,0.391 -4.847,1.088 0.043,-0.272 0.065,-0.551 0.065,-0.836 0,-2.973 -2.411,-5.385 -5.386,-5.385 -0.977,0 -1.893,0.26 -2.683,0.713 C 5.712,0.32 3.97,-0.239 2.098,-0.239 1.376,-0.239 0.674,-0.157 0,0"
             style="fill:#f79859;fill-opacity:1;fill-rule:evenodd;stroke:none"
             id="path1071" />
        </g>
        <g
           id="g1073"
           transform="translate(417.2969,467.4575)">
          <path
             d="m 0,0 c 1.215,0.111 2.447,0.17 3.691,0.17 20.211,0 36.922,-14.964 39.668,-34.417 21.905,-2.033 39.055,-20.461 39.055,-42.896 0,-19.653 -13.156,-36.229 -31.142,-41.41 3.914,-6.268 6.177,-13.674 6.177,-21.61 0,-22.571 -18.299,-40.869 -40.871,-40.869 -15.223,0 -28.498,8.321 -35.533,20.662 -4.408,-1.134 -9.031,-1.737 -13.795,-1.737 -14.486,0 -27.664,5.586 -37.508,14.717 -4.832,-3.091 -10.576,-4.881 -16.738,-4.881 -17.188,0 -31.121,13.933 -31.121,31.12 0,0.375 0.01,0.747 0.023,1.117 -19.046,6.971 -32.638,25.256 -32.638,46.716 0,24.889 18.282,45.506 42.152,49.155 -1.971,3.527 -3.094,7.592 -3.094,11.919 0,13.527 10.967,24.494 24.492,24.494 0.707,0 1.405,-0.031 2.096,-0.09 0.488,23.483 19.676,42.37 43.275,42.37 23.909,0 43.288,-19.381 43.288,-43.287 C 1.477,7.354 0.961,3.586 0,0"
             style="fill:#db2f23;fill-opacity:1;fill-rule:evenodd;stroke:none"
             id="path1075" />
        </g>
        <g
           id="g1077"
           transform="translate(297.1812,375.5942)">
          <path
             d="m 0,0 c -2.107,-1.746 -4.812,-2.797 -7.765,-2.797 -6.727,0 -12.179,5.454 -12.179,12.181 0,4.911 2.907,9.144 7.093,11.071 0.54,7.497 5.695,13.717 12.636,15.835 1.654,13.821 13.417,24.535 27.684,24.535 7.293,0 13.932,-2.8 18.901,-7.383 4.67,5.734 11.785,9.397 19.755,9.397 13.17,0 24.004,-9.996 25.333,-22.813 1.261,0.173 2.552,0.264 3.863,0.264 3.754,0 7.336,-0.739 10.609,-2.076 3.733,10.031 13.393,17.174 24.725,17.174 13.234,0 24.191,-9.747 26.084,-22.453 14.263,-1.231 25.457,-13.197 25.457,-27.778 0,-12.932 -8.801,-23.806 -20.74,-26.96 1.931,-3.854 3.023,-8.2 3.023,-12.803 0,-4.774 -1.172,-9.273 -3.24,-13.229 3.121,-3.101 5.051,-7.395 5.051,-12.14 0,-9.454 -7.661,-17.113 -17.112,-17.113 -8.429,0 -15.433,6.092 -16.851,14.111 -3.901,0.485 -7.557,1.756 -10.807,3.649 -3.436,-2.556 -7.695,-4.071 -12.309,-4.071 -7.355,0 -13.812,3.851 -17.466,9.647 -4.108,-2.05 -8.739,-3.203 -13.639,-3.203 -14.826,0 -27.189,10.543 -30.002,24.54 -3.205,-1.285 -6.703,-1.99 -10.367,-1.99 -12.608,0 -23.26,8.368 -26.707,19.853 C 5.006,-12.25 0.604,-6.674 0,0"
             style="fill:#f14b29;fill-opacity:1;fill-rule:evenodd;stroke:none"
             id="path1079" />
        </g>
        <g
           id="g1081"
           transform="translate(321.6309,399.9775)">
          <path
             d="m 0,0 c 7.047,0 12.93,-4.996 14.297,-11.637 0.789,0.104 1.595,0.161 2.414,0.161 3.357,0 6.498,-0.919 9.187,-2.517 1.51,10.307 10.387,18.222 21.116,18.222 9.503,0 17.554,-6.214 20.318,-14.801 3.352,4.283 8.535,7.059 14.373,7.158 4.34,4.698 10.553,7.643 17.453,7.643 13.121,0 23.758,-10.638 23.758,-23.759 0,-5.223 -1.686,-10.049 -4.543,-13.97 4.264,-2.35 7.152,-6.885 7.152,-12.096 0,-7.621 -6.177,-13.797 -13.8,-13.797 -0.825,0 -1.633,0.07 -2.418,0.212 -2.682,-2.029 -6.024,-3.232 -9.645,-3.232 -2.594,0 -5.043,0.615 -7.209,1.711 -3.16,-4.191 -8.182,-6.902 -13.834,-6.902 -6.115,0 -11.49,3.169 -14.57,7.956 -1.494,-0.359 -3.051,-0.551 -4.654,-0.551 -10.954,0 -19.832,8.877 -19.832,19.83 0,1.075 0.087,2.131 0.251,3.159 -2.06,0.737 -3.974,1.785 -5.685,3.083 -2.045,-7.707 -9.068,-13.389 -17.418,-13.389 -9.951,0 -18.02,8.07 -18.02,18.02 0,0.121 0.002,0.241 0.006,0.361 -7.451,0.66 -13.295,6.916 -13.295,14.538 C -14.598,-6.536 -8.063,0 0,0"
             style="fill:#f79859;fill-opacity:1;fill-rule:evenodd;stroke:none"
             id="path1083" />
        </g>
        <g
           id="g1085"
           transform="translate(164.8052,435.0146)">
          <path
             d="m 0,0 c -4.777,1.661 -7.841,4.939 -8.895,10.056 3.675,-1.155 6.297,-3.182 7.749,-6.18 -0.098,2.421 0.694,4.716 2.464,6.86 C 2.771,7.021 2.382,3.681 -0.13,0.773 -0.082,0.519 -0.038,0.262 0,0"
             style="fill:#db2f23;fill-opacity:1;fill-rule:evenodd;stroke:none"
             id="path1087" />
        </g>
        <g
           id="g1089"
           transform="translate(146.4224,318.1011)">
          <path
             d="M 0,0 C -1.092,4.939 0.093,9.268 3.896,12.849 4.075,12.141 4.207,11.449 4.292,10.77 6.689,8.552 7.577,5.883 6.727,2.695 5.487,3.822 4.615,5.083 4.139,6.486 3.602,4.04 2.246,1.87 0,0"
             style="fill:#db2f23;fill-opacity:1;fill-rule:evenodd;stroke:none"
             id="path1091" />
        </g>
        <g
           id="g1093"
           transform="translate(126.0693,388.6758)">
          <path
             d="M 0,0 C -1.381,6.312 -5.076,10.696 -11.407,12.812 -10.5,7.975 -8.327,4.34 -4.743,2.042 -7.8,2.535 -10.832,1.879 -13.821,-0.04 -9.329,-2.449 -5.033,-2.461 -0.961,0.283 -0.648,0.182 -0.328,0.088 0,0"
             style="fill:#db2f23;fill-opacity:1;fill-rule:evenodd;stroke:none"
             id="path1095" />
        </g>
        <g
           id="g1097"
           transform="translate(205.6494,430.4805)">
          <path
             d="m 0,0 c 0.212,0.969 0.48,1.892 0.801,2.767 -1.606,3.55 -1.577,7.264 0.295,11.14 C 2.527,11.875 3.39,9.819 3.642,7.74 5.551,10.008 8.124,11.714 11.408,12.811 10.499,7.975 8.328,4.34 4.743,2.043 7.802,2.537 10.832,1.878 13.821,-0.041 9.329,-2.449 5.034,-2.461 0.962,0.285 0.648,0.182 0.328,0.088 0,0"
             style="fill:#db2f23;fill-opacity:1;fill-rule:evenodd;stroke:none"
             id="path1099" />
        </g>
        <g
           id="g1101"
           transform="translate(221.2637,338.2979)">
          <path
             d="M 0,0 C 0.956,-0.262 1.863,-0.577 2.721,-0.946 6.35,0.469 10.056,0.241 13.829,-1.833 11.724,-3.154 9.625,-3.906 7.534,-4.048 9.698,-6.074 11.266,-8.735 12.185,-12.072 7.405,-10.908 3.89,-8.546 1.788,-4.845 2.116,-7.925 1.3,-10.916 -0.776,-13.797 -2.941,-9.186 -2.727,-4.895 0.23,-0.975 0.147,-0.655 0.069,-0.333 0,0"
             style="fill:#db2f23;fill-opacity:1;fill-rule:evenodd;stroke:none"
             id="path1103" />
        </g>
        <g
           id="g1105"
           transform="translate(450.9277,448.2954)">
          <path
             d="m 0,0 c 0.24,1.103 0.543,2.152 0.91,3.148 -1.826,4.039 -1.793,8.265 0.336,12.676 1.627,-2.313 2.609,-4.651 2.895,-7.018 2.173,2.582 5.101,4.523 8.836,5.771 C 11.945,9.075 9.473,4.939 5.396,2.325 8.875,2.885 12.324,2.139 15.723,-0.044 10.613,-2.786 5.725,-2.8 1.092,0.322 0.736,0.207 0.373,0.1 0,0"
             style="fill:#db2f23;fill-opacity:1;fill-rule:evenodd;stroke:none"
             id="path1107" />
        </g>
        <g
           id="g1109"
           transform="translate(417.5977,299.1919)">
          <path
             d="m 0,0 c 3.352,-11.322 1.301,-21.598 -6.973,-30.564 -2.808,8.541 -2.535,16.277 1.178,23.114 -4.461,-3.484 -9.893,-5.104 -16.371,-4.667 5.07,7.816 11.937,11.624 20.877,10.817 0.412,0.438 0.842,0.873 1.289,1.3"
             style="fill:#db2f23;fill-opacity:1;fill-rule:evenodd;stroke:none"
             id="path1111" />
        </g>
        <g
           id="g1113"
           transform="translate(314.4375,469.3989)">
          <path
             d="m 0,0 c -0.473,0.873 -0.982,1.686 -1.535,2.439 0.566,3.854 -0.487,7.416 -3.354,10.627 -0.814,-2.348 -1.078,-4.562 -0.746,-6.63 -2.461,1.654 -5.406,2.585 -8.864,2.734 2.206,-4.399 5.296,-7.293 9.376,-8.514 -3.076,-0.369 -5.809,-1.836 -8.152,-4.505 4.982,-1.076 9.113,0.095 12.269,3.856 C -0.674,-0.004 -0.342,-0.006 0,0"
             style="fill:#db2f23;fill-opacity:1;fill-rule:evenodd;stroke:none"
             id="path1115" />
        </g>
        <g
           id="g1117"
           transform="translate(378.0234,518.48)">
          <path
             d="M 0,0 C -3.637,3.515 -5.039,7.778 -3.846,12.864 -0.996,10.272 0.531,7.331 0.59,3.999 1.518,6.238 3.201,7.988 5.707,9.19 5.467,5.208 3.709,2.34 0.207,0.757 0.145,0.507 0.076,0.255 0,0"
             style="fill:#db2f23;fill-opacity:1;fill-rule:evenodd;stroke:none"
             id="path1119" />
        </g>
        <g
           id="g1121"
           transform="translate(312.1367,326.2676)">
          <path
             d="m 0,0 c -0.957,-0.262 -1.863,-0.58 -2.723,-0.946 -3.629,1.412 -7.336,1.187 -11.108,-0.886 2.107,-1.322 4.206,-2.074 6.294,-2.216 -2.162,-2.026 -3.73,-4.687 -4.65,-8.024 4.783,1.164 8.294,3.526 10.398,7.227 -0.328,-3.08 0.488,-6.071 2.562,-8.955 2.167,4.614 1.952,8.905 -1.005,12.825 C -0.148,-0.655 -0.07,-0.333 0,0"
             style="fill:#db2f23;fill-opacity:1;fill-rule:evenodd;stroke:none"
             id="path1123" />
        </g>
        <g
           id="g1125"
           transform="translate(254.0356,394.5063)">
          <path
             d="M 0,0 C 5.631,2.207 10.966,1.612 15.904,-2.218 15.101,-2.561 14.306,-2.846 13.521,-3.073 11.346,-6.315 8.358,-7.86 4.433,-7.448 c 1.1,1.675 2.428,2.94 4,3.762 C 5.44,-3.505 2.627,-2.306 0,0"
             style="fill:#db2f23;fill-opacity:1;fill-rule:evenodd;stroke:none"
             id="path1127" />
        </g>
      </g>
    </g>
  </g>
</svg>
